<?xml version="1.0" standalone="no"?>
<!DOCTYPE svg PUBLIC "-//W3C//DTD SVG 20010904//EN"
 "http://www.w3.org/TR/2001/REC-SVG-20010904/DTD/svg10.dtd">
<svg version="1.0" xmlns="http://www.w3.org/2000/svg"
 width="1080.000000pt" height="2400.000000pt" viewBox="0 0 1080.000000 2400.000000"
 preserveAspectRatio="xMidYMid meet">

<g transform="translate(0.000000,2400.000000) scale(0.100000,-0.100000)"
fill="#000000" stroke="none">
<path d="M5476 14823 c-9 -75 -39 -193 -72 -285 -88 -244 -216 -382 -376 -404
-53 -7 -157 12 -164 31 -13 34 139 428 236 613 l50 94 -78 -7 c-42 -4 -126
-16 -187 -28 l-110 -22 -60 -182 c-33 -100 -63 -183 -67 -183 -15 0 -7 145 11
240 11 52 17 97 15 99 -2 2 -49 -10 -104 -28 -89 -28 -101 -35 -107 -59 -4
-15 -7 -106 -7 -202 1 -195 15 -298 61 -432 26 -77 28 -89 20 -163 -13 -121
31 -366 79 -433 38 -54 86 4 120 143 9 39 18 72 20 74 2 2 18 -9 36 -24 47
-40 89 -55 150 -55 58 0 103 18 190 74 169 108 375 490 473 877 30 119 59 298
50 307 -4 4 -44 9 -90 10 l-82 4 -7 -59z"/>
<path d="M3873 14447 c-108 -69 -253 -174 -253 -183 0 -3 39 -74 87 -157 305
-533 492 -1086 565 -1677 20 -164 17 -646 -5 -790 -23 -145 -57 -292 -95 -401
-145 -419 -431 -707 -797 -805 -90 -24 -112 -26 -210 -21 -60 3 -125 11 -144
16 -19 6 -37 9 -39 6 -5 -5 63 -102 157 -225 36 -47 143 -163 238 -259 195
-195 172 -184 288 -133 155 68 322 193 442 331 318 368 493 926 532 1696 34
666 -130 1484 -443 2218 -47 110 -201 426 -215 440 -4 4 -52 -21 -108 -56z"/>
<path d="M7034 13555 c-28 -43 -22 -220 19 -555 82 -667 151 -1506 133 -1605
-16 -83 -44 -2 -166 482 -139 554 -286 1008 -347 1075 -39 43 -91 -3 -123
-110 -87 -293 -161 -1269 -147 -1947 8 -388 33 -529 105 -585 34 -28 50 -25
86 14 62 65 73 178 86 841 11 572 19 775 29 775 12 0 24 -49 96 -375 137 -624
242 -977 314 -1059 26 -29 71 -48 98 -41 54 13 118 117 153 251 81 311 102
1098 44 1664 -34 329 -105 680 -183 899 -61 171 -135 301 -172 301 -5 0 -16
-11 -25 -25z"/>
<path d="M2733 13095 c-96 -242 -150 -442 -190 -695 -26 -165 -26 -635 0 -800
40 -257 127 -564 210 -740 l35 -75 -5 788 -6 787 44 0 c251 -1 556 -104 679
-229 120 -123 119 -250 -2 -387 -66 -73 -78 -95 -78 -136 0 -31 8 -47 42 -84
47 -51 104 -84 143 -84 63 0 162 152 204 312 81 312 33 669 -122 906 -99 152
-198 234 -378 311 -189 81 -237 93 -386 99 l-132 4 -3 76 -3 76 -52 -129z"/>
<path d="M5730 13146 c-219 -77 -390 -214 -478 -384 -54 -103 -69 -158 -88
-325 -23 -202 -16 -442 15 -512 28 -63 54 -91 112 -120 65 -34 147 -53 279
-65 142 -13 219 -31 318 -72 135 -55 196 -102 229 -176 22 -46 25 -65 22 -135
-3 -69 -9 -94 -37 -150 -65 -131 -197 -242 -342 -288 -74 -24 -200 -28 -268
-10 -56 16 -117 71 -138 127 -31 82 -3 237 49 268 27 17 95 -26 166 -105 97
-108 192 -144 293 -110 55 18 123 97 143 165 15 51 15 61 1 108 -25 84 -88
155 -187 210 -111 61 -184 82 -284 82 -133 -1 -199 -44 -258 -171 -47 -100
-66 -176 -74 -288 -11 -166 25 -347 100 -508 91 -192 185 -305 305 -364 69
-34 83 -38 156 -37 137 0 255 56 386 184 108 105 145 185 176 380 21 138 29
450 15 610 -23 277 -73 422 -183 532 -91 91 -189 132 -352 148 -103 10 -171
24 -286 62 -112 36 -120 42 -120 93 0 57 19 77 115 121 112 52 354 117 650
174 61 12 120 28 132 36 48 30 93 175 93 298 0 57 -4 69 -33 108 -68 89 -225
139 -439 137 -101 0 -135 -5 -188 -23z"/>
<path d="M7940 13114 c-111 -33 -274 -97 -328 -130 -81 -48 -93 -120 -47 -277
40 -140 78 -197 151 -229 l30 -13 -44 -216 -45 -216 -39 -18 c-65 -28 -73 -50
-73 -200 1 -71 7 -169 14 -216 9 -64 10 -100 2 -145 -22 -118 -41 -288 -53
-462 -20 -301 13 -538 100 -725 l37 -79 67 89 c123 165 249 380 324 553 44
104 116 301 111 306 -5 6 -184 -69 -270 -113 -79 -39 -90 -35 -81 32 3 22 18
137 33 255 l26 215 165 22 c239 31 234 29 242 89 4 27 10 134 14 237 6 154 5
190 -6 197 -25 16 -154 22 -235 11 -44 -5 -82 -8 -84 -5 -4 4 22 232 35 310 6
32 7 32 87 44 45 6 103 16 128 21 l46 10 -14 77 c-42 228 -165 603 -197 601
-6 0 -49 -11 -96 -25z"/>
<path d="M4862 13094 c-20 -14 -45 -79 -56 -144 -53 -333 -72 -2238 -25 -2551
6 -42 21 -94 33 -115 26 -46 78 -84 117 -84 37 0 86 43 99 88 25 90 32 442 21
1007 -32 1524 -29 1481 -91 1682 -36 116 -59 144 -98 117z"/>
<path d="M1394 270 c-48 -19 -36 -85 18 -95 18 -3 464 -4 990 -3 716 2 960 6
969 15 15 15 15 61 0 76 -14 14 -1943 21 -1977 7z"/>
<path d="M4414 270 c-48 -19 -36 -85 18 -95 18 -3 464 -4 990 -3 716 2 960 6
969 15 15 15 15 61 0 76 -14 14 -1943 21 -1977 7z"/>
<path d="M7444 270 c-48 -19 -36 -85 18 -95 18 -3 464 -4 990 -3 716 2 960 6
969 15 15 15 15 61 0 76 -14 14 -1943 21 -1977 7z"/>
</g>
</svg>
